<svg id="Calque_1" data-name="Calque 1" xmlns="http://www.w3.org/2000/svg" viewBox="0 0 322.47 292.35"><defs><style>.cls-1{fill:#e74139;}.cls-2{fill:#1f193d;}.cls-3{fill:#ea545b;}.cls-4{fill:#fefefe;}.cls-5{fill:#65567f;}</style></defs><title>Plan de travail 3</title><path class="cls-1" d="M180,222.41c-1-9.25-2.08-18.46-5.48-27.23-1.85-4.79-1.9-5.06-6.85-4.57-5.2.51-10.36,1.44-15.56,2-6.76.69-13.54,1.62-20.34.47-2.24-.37-3.67.94-5.09,2.12-1.84,1.51-3.42,1.78-5.22,0-5.73-5.58-13.67-6.91-20.43-10.52A83.55,83.55,0,0,1,66.92,151a116.81,116.81,0,0,1-11.21-28.63c-.78-3.08-.8-3.19,2.32-3.78,4.16-.78,8.36-1.32,12.52-2.07,1.85-.33,2.57.52,2.85,2.13a80.07,80.07,0,0,0,3.11,10.75c1.59,4.95,4.42,6.76,9.46,5.52a157.72,157.72,0,0,1,25.54-4c2.56-.49,5.17.2,7.71-.39,3.48-3.47,6.66-2.68,10,.41,2.24,2.07,5.48,1.65,8.23,2.46A66,66,0,0,1,168,152.27a77.63,77.63,0,0,1,10.12,13.84c.36.62.82,1.18,1.25,1.8,1.09-.79.67-1.79.68-2.63q0-11.37,0-22.74c0-9.69-4.51-14.94-14-17.06-7-1.57-14.15-1.84-21.27-2-7.83-.19-15.66.06-23.49-.06-11-.16-21.9-.73-32.53-3.87-18.32-5.42-29.82-17.17-33.95-36A111.42,111.42,0,0,1,53,68.21c-.15-1.89.39-2.73,2.47-2.64,3.57.14,7.16.11,10.74,0,1.74,0,2.19.58,2.33,2.29.48,5.7.84,11.41,2.78,16.9,3,8.58,8.64,14.73,17.06,18.07,9.63,3.83,19.73,5,30,4.65a2.64,2.64,0,0,1,2-.82,82.81,82.81,0,0,1,8.63,0,2.62,2.62,0,0,1,2,.83c2.39.06,4.78.13,7.16.17l15.07.25c2.95-1.26,5.82-1.44,8.49.69,7.23,1.23,14.25,3.09,20.75,6.59a1.51,1.51,0,0,1,1.43.21c6.81,5,11.35,11.29,11.58,20.07q.06,41.09.1,82.18"/><path class="cls-1" d="M195.49,135.47c-1.58-8.53-5.71-15.42-13-20.28,0-15.49.08-31,0-46.46,0-2.47.57-3.48,3.19-3.26a52.48,52.48,0,0,0,7.73,0c2.09-.13,2.69.6,2.67,2.67-.08,14.07,0,28.15,0,42.22,0,7.41,0,14.82,0,22.23C196,133.57,196.25,134.62,195.49,135.47Z"/><path class="cls-1" d="M161.73,108.6c-2.8-.61-5.66-.47-8.49-.69-3,0-3.21-1.91-3.18-4.41q.19-17.49,0-35c0-2.46.76-3.2,3.13-3a81.07,81.07,0,0,0,8.25,0c1.54,0,2.23.35,2.23,2.08q-.09,19.49,0,39C163.67,108.06,163.21,108.71,161.73,108.6Z"/><path class="cls-1" d="M131,107.49H118.4a4.3,4.3,0,0,1-.44-2.66c0-12.16,0-24.33,0-36.49,0-2.14.48-3,2.77-2.85,2.9.19,5.83.09,8.74,0,1.52,0,2.05.59,2,2.08,0,12.74,0,25.49,0,38.24A7.3,7.3,0,0,1,131,107.49Z"/><path class="cls-1" d="M147,180h-3.61c4.73-6.84,8-13.92,6.27-22.75,3,1.64,4.81,3.87,6.77,5.93A62.22,62.22,0,0,1,165.48,176c.76,1.35.69,1.87-1,2-1.48.13-2.92.68-4.44.59C155.75,179.38,151.32,179.27,147,180Z"/><path class="cls-1" d="M83.13,149.1c6.73-1.71,13.43-3.53,21.07-4.12-4.83,6.87-7.43,13.87-5.9,22.36a57.37,57.37,0,0,1-11.08-9.87c-2-2.21-3.83-4.57-5.73-6.86C81.19,149.19,82.46,149.47,83.13,149.1Z"/><path class="cls-1" d="M83.13,149.1l-1.64,1.51C80.92,148.89,82,149,83.13,149.1Z"/><circle class="cls-1" cx="133.11" cy="168.66" r="4.65"/><path class="cls-2" d="M180,222.41c-1-9.25-2.08-18.46-5.48-27.23-1.85-4.79-1.9-5.06-6.85-4.57-5.2.51-10.36,1.44-15.56,2-6.76.69-13.54,1.62-20.34.47-2.24-.37-3.67.94-5.09,2.12-1.84,1.51-3.42,1.78-5.22,0-5.73-5.58-13.67-6.91-20.43-10.52A83.55,83.55,0,0,1,66.92,151a116.81,116.81,0,0,1-11.21-28.63c-.78-3.08-.8-3.19,2.32-3.78,4.16-.78,8.36-1.32,12.52-2.07,1.85-.33,2.57.52,2.85,2.13a80.07,80.07,0,0,0,3.11,10.75c1.59,4.95,4.42,6.76,9.46,5.52a157.72,157.72,0,0,1,25.54-4c2.56-.49,5.17.2,7.71-.39,3.48-3.47,6.66-2.68,10,.41,2.24,2.07,5.48,1.65,8.23,2.46A66,66,0,0,1,168,152.27a77.63,77.63,0,0,1,10.12,13.84c.36.62.82,1.18,1.25,1.8,1.09-.79.67-1.79.68-2.63q0-11.37,0-22.74c0-9.69-4.51-14.94-14-17.06-7-1.57-14.15-1.84-21.27-2-7.83-.19-15.66.06-23.49-.06-11-.16-21.9-.73-32.53-3.87-18.32-5.42-29.82-17.17-33.95-36A111.42,111.42,0,0,1,53,68.21c-.15-1.89.39-2.73,2.47-2.64,3.57.14,7.16.11,10.74,0,1.74,0,2.19.58,2.33,2.29.48,5.7.84,11.41,2.78,16.9,3,8.58,8.64,14.73,17.06,18.07,9.63,3.83,19.73,5,30,4.65a2.64,2.64,0,0,1,2-.82,82.81,82.81,0,0,1,8.63,0,2.62,2.62,0,0,1,2,.83c2.39.06,4.78.13,7.16.17l15.07.25c2.95-1.26,5.82-1.44,8.49.69,7.23,1.23,14.25,3.09,20.75,6.59a1.51,1.51,0,0,1,1.43.21c6.81,5,11.35,11.29,11.58,20.07q.06,41.09.1,82.18"/><path class="cls-3" d="M195.49,135.47c-1.58-8.53-5.71-15.42-13-20.28,0-15.49.08-31,0-46.46,0-2.47.57-3.48,3.19-3.26a52.48,52.48,0,0,0,7.73,0c2.09-.13,2.69.6,2.67,2.67-.08,14.07,0,28.15,0,42.22,0,7.41,0,14.82,0,22.23C196,133.57,196.25,134.62,195.49,135.47Z"/><path class="cls-3" d="M161.73,108.6c-2.8-.61-5.66-.47-8.49-.69-3,0-3.21-1.91-3.18-4.41q.19-17.49,0-35c0-2.46.76-3.2,3.13-3a81.07,81.07,0,0,0,8.25,0c1.54,0,2.23.35,2.23,2.08q-.09,19.49,0,39C163.67,108.06,163.21,108.71,161.73,108.6Z"/><path class="cls-3" d="M131,107.49H118.4a4.3,4.3,0,0,1-.44-2.66c0-12.16,0-24.33,0-36.49,0-2.14.48-3,2.77-2.85,2.9.19,5.83.09,8.74,0,1.52,0,2.05.59,2,2.08,0,12.74,0,25.49,0,38.24A7.3,7.3,0,0,1,131,107.49Z"/><path class="cls-4" d="M147,180h-3.61c4.73-6.84,8-13.92,6.27-22.75,3,1.64,4.81,3.87,6.77,5.93A62.22,62.22,0,0,1,165.48,176c.76,1.35.69,1.87-1,2-1.48.13-2.92.68-4.44.59C155.75,179.38,151.32,179.27,147,180Z"/><path class="cls-4" d="M83.13,149.1c6.73-1.71,13.43-3.53,21.07-4.12-4.83,6.87-7.43,13.87-5.9,22.36a57.37,57.37,0,0,1-11.08-9.87c-2-2.21-3.83-4.57-5.73-6.86C81.19,149.19,82.46,149.47,83.13,149.1Z"/><path class="cls-5" d="M83.13,149.1l-1.64,1.51C80.92,148.89,82,149,83.13,149.1Z"/><circle class="cls-4" cx="133.11" cy="168.66" r="4.65"/></svg>