<svg id="Calque_1" data-name="Calque 1" xmlns="http://www.w3.org/2000/svg" viewBox="0 0 493.19 292.35"><defs><style>.cls-1{fill:#e74139;}.cls-2{fill:#1f193d;}.cls-3,.cls-4{fill:#932a3f;}.cls-3{opacity:0.78;}.cls-5{fill:#362883;}.cls-6{fill:#372783;}.cls-7{fill:#372d86;}.cls-8{fill:#fefefe;}.cls-9{fill:#bfb9c9;}.cls-10{fill:#65567f;}.cls-11{fill:#fff;}.cls-12{fill:#9f94ad;}.cls-13{fill:#ac5083;}.cls-14{fill:#f9be84;}</style></defs><title>Visage2</title><path class="cls-1" d="M207.17,179.21c-1-9.25-2.07-18.45-5.47-27.23-1.85-4.79-1.9-5.06-6.86-4.57-5.2.52-10.36,1.44-15.56,2-6.76.69-13.54,1.62-20.34.48-2.24-.38-3.66.93-5.09,2.11-1.83,1.52-3.42,1.78-5.22,0-5.73-5.58-13.66-6.91-20.42-10.52a83.58,83.58,0,0,1-34.1-33.67A116.81,116.81,0,0,1,82.9,79.17c-.78-3.08-.79-3.19,2.33-3.78,4.15-.78,8.35-1.32,12.51-2.07,1.85-.33,2.58.52,2.86,2.14a80.36,80.36,0,0,0,3.11,10.74c1.58,5,4.42,6.76,9.46,5.52a157.72,157.72,0,0,1,25.54-4c2.55-.49,5.16.2,7.71-.39,3.48-3.47,6.66-2.68,10,.41,2.24,2.08,5.48,1.65,8.24,2.46a65.92,65.92,0,0,1,30.55,18.83,77.14,77.14,0,0,1,10.12,13.84c.36.62.82,1.19,1.25,1.8,1.09-.79.68-1.79.68-2.63q.06-11.37,0-22.74c0-9.69-4.5-14.94-14-17.06-7-1.57-14.15-1.84-21.28-2-7.82-.19-15.66,0-23.48-.07-11-.16-21.91-.73-32.53-3.87C97.62,70.92,86.12,59.16,82,40.32A113.35,113.35,0,0,1,80.17,25c-.14-1.89.4-2.73,2.47-2.64,3.58.14,7.16.11,10.74,0,1.74-.06,2.19.57,2.33,2.28.48,5.7.85,11.41,2.79,16.9,3,8.58,8.64,14.73,17.06,18.07,9.62,3.83,19.73,5,30,4.66a2.67,2.67,0,0,1,2-.83,82.62,82.62,0,0,1,8.62,0,2.6,2.6,0,0,1,2,.83c2.39.06,4.78.13,7.17.17,5,.1,10,.17,15.06.25,3-1.26,5.82-1.44,8.5.69,7.22,1.23,14.25,3.09,20.75,6.59a1.49,1.49,0,0,1,1.43.22c6.8,5,11.34,11.28,11.58,20.06q0,41.1.09,82.18c0,1.58,0,3.16-.07,4.74-.67.76-1.55.37-2.32.38q-5.56.06-11.13,0C208.57,179.57,207.77,179.91,207.17,179.21Z"/><path class="cls-1" d="M308.45,150.44c-2.82-1.29-5.87-.35-8.79-.92a62.57,62.57,0,0,0-11-1.19,1.34,1.34,0,0,1-1,.41c-.8-.15-1.6-.33-2.39-.5-2.27-.51-2.76-.16-3.37,2.22a179.71,179.71,0,0,0-5.22,24.71c-.16,1,0,2.2-1.13,2.86l-.5,1.24a70.83,70.83,0,0,1-15.81-.08c1.57-12.35,3.63-24.63,7.58-36.47,4.12-12.37,9.53-24.17,18.47-33.87a64.38,64.38,0,0,1,32-18.83c3.83-1,7.5-2,10.52-4.65a2.38,2.38,0,0,1,3.37,0c.93.69,1.92,1.31,2.89,2,3,.68,6.12-.13,9.16.42a199.7,199.7,0,0,1,25,4.07c4.08,1,7-.8,8.38-4.73a86.31,86.31,0,0,0,3.63-12.37c.26-1.32.72-1.64,1.95-1.44q7.37,1.22,14.73,2.31c1.27.19,1.32.79,1.09,1.91a109.63,109.63,0,0,1-12.1,31.4c-.4.72-.69,1.49-1,2.24a2.12,2.12,0,0,1-.41,2.09,87.11,87.11,0,0,1-10.49,13.12,2.52,2.52,0,0,1-1.92,1c-5,4.16-9.76,8.52-15.42,11.76-1.43.82-2.82,1.73-4.22,2.59a1.61,1.61,0,0,1-.83,1.19,50,50,0,0,1-10.29,4.33,1.28,1.28,0,0,1-1.37-.36c-1.34-.17-2.09.83-3,1.5s-2.11,1.59-3.18,2.36c-4.33,3.11-4.43,3.23-8.59,0-2.15-1.64-4.1-.37-6.15-.32A13.54,13.54,0,0,1,308.45,150.44Z"/><path class="cls-1" d="M184.25,225.85c-3.53-1.66-7.09-3.24-10.57-5a45.22,45.22,0,0,1-11.38-7.77c10.11-1.09,16.72-7.9,24.29-13,5.62-3.78,11.38-7.36,18.3-8,13.57-1.32,25.34,1.78,32.89,14.36.52.86,1,1.52,1.69.22,4.4-8.16,11.56-12.49,20.35-14.26a35.15,35.15,0,0,1,27.41,5.41c5.25,3.52,10.35,7.27,15.6,10.79a23.69,23.69,0,0,0,12,4.35c-1.28,2.14-3.32,3.15-5.11,4.38a74.42,74.42,0,0,1-14.41,7.36,8.8,8.8,0,0,0-2.18,1.17,7.79,7.79,0,0,1-3.48,1.82,148.58,148.58,0,0,1-39.32,7c-2.08.07-4.09.7-6.18.61-3.64-.17-7.28-.11-10.91,0-4.75-.93-9.6-.46-14.38-1.07a164.3,164.3,0,0,1-32.3-6.95A6.28,6.28,0,0,1,184.25,225.85Z"/><path class="cls-1" d="M184.25,225.85c5.12,1.4,10.19,3,15.37,4.17,9.62,2.17,19.33,3.92,29.25,3.84a6.92,6.92,0,0,1,4,1c2.41.4,3,2.65,4.23,4.24,1.64,2.16,1.45,2.16,3.08,0,1.21-1.59,1.82-3.83,4.23-4.24a10.91,10.91,0,0,1,4.82-.93,150.75,150.75,0,0,0,41.93-7.63c.62-.2,1.28-.28,1.92-.42-2.51,6.23-6.41,11.59-10.79,16.6-8.95,10.21-20,17-33.47,19.17-18.14,2.88-34.48-1.35-48.4-13.69A69.47,69.47,0,0,1,185,227.68C184.65,227.1,184.16,226.58,184.25,225.85Z"/><path class="cls-1" d="M372,127.34a80.47,80.47,0,0,0,12.82-16.18c1,.51.69,1.43.69,2.22,0,21.16,0,42.32.05,63.48,0,2.1-.66,2.77-2.72,2.66a68.65,68.65,0,0,0-8.24,0c-2.14.14-2.64-.67-2.63-2.69.07-16.17,0-32.33,0-48.49C372,128,372,127.67,372,127.34Z"/><path class="cls-1" d="M222.69,92.27c-1.58-8.53-5.72-15.42-13-20.28,0-15.49.08-31,0-46.46,0-2.47.57-3.48,3.18-3.25a54,54,0,0,0,7.74,0c2.08-.13,2.68.6,2.67,2.68-.08,14.07,0,28.14,0,42.21,0,7.41,0,14.82,0,22.23C223.19,90.37,223.45,91.43,222.69,92.27Z"/><path class="cls-1" d="M188.93,65.4c-2.8-.61-5.66-.47-8.49-.69-3.05,0-3.21-1.9-3.18-4.41q.18-17.49,0-35c0-2.46.76-3.2,3.13-3a80.88,80.88,0,0,0,8.24,0c1.54,0,2.24.35,2.23,2.08q-.09,19.48,0,39C190.87,64.86,190.4,65.51,188.93,65.4Z"/><path class="cls-1" d="M158.2,64.29H145.59a4.41,4.41,0,0,1-.44-2.67c0-12.16,0-24.32-.05-36.49,0-2.14.49-3,2.77-2.85,2.9.19,5.83.09,8.75,0,1.52,0,2,.59,2,2.07,0,12.75,0,25.49,0,38.24A6.82,6.82,0,0,1,158.2,64.29Z"/><path class="cls-1" d="M339.88,146.85a62.71,62.71,0,0,0,12.49-5.15c1.15.48.82,1.51.82,2.37,0,11,0,22,.05,33,0,1.83-.51,2.53-2.4,2.45-3.08-.13-6.17-.06-9.25,0-1.18,0-1.91-.27-1.9-1.65C339.8,167.51,339.46,157.18,339.88,146.85Z"/><path class="cls-1" d="M308.45,150.44H319c1.65.11,2.29.78,2.26,2.63q-.2,12,0,24c0,2-.67,2.56-2.58,2.48-3-.14-6-.09-9,0-1.46,0-2.08-.39-2.07-2,.06-8.41,0-16.82,0-25.22C307.59,151.54,307.66,150.84,308.45,150.44Z"/><path class="cls-1" d="M287.78,148.28l.85.05q.09,14.8.17,29.6c0,1-.4,1.55-1.46,1.55-3.41,0-6.81,0-10.21,0-1.08,0-1.47-.53-1.59-1.46a158.08,158.08,0,0,1,5.67-28.16c1.37-2.64,1.41-2.68,4.43-1.91C286.35,148.14,287.11,147.92,287.78,148.28Z"/><path class="cls-1" d="M259.23,179.19l15.81.08c-.25.54-.75.59-1.25.59h-13.1C260.11,179.86,259.52,179.85,259.23,179.19Z"/><path class="cls-1" d="M207.17,179.21l15.54,0A37.67,37.67,0,0,1,207.17,179.21Z"/><path class="cls-1" d="M343.18,87.77c-3.06-.12-6.15.62-9.16-.42C337.07,87.53,340.16,86.89,343.18,87.77Z"/><path class="cls-1" d="M146.42,87.37c-2.53,1-5.14.31-7.71.39C141.24,86.9,143.85,87.5,146.42,87.37Z"/><path class="cls-1" d="M174.18,136.85h-3.61c4.73-6.85,8-13.93,6.26-22.76,3,1.64,4.81,3.87,6.78,5.93a63,63,0,0,1,9.07,12.76c.76,1.35.69,1.87-1,2-1.48.13-2.91.68-4.43.59C182.94,136.18,178.51,136.07,174.18,136.85Z"/><path class="cls-1" d="M110.33,105.9c6.72-1.7,13.43-3.53,21.07-4.12-4.84,6.88-7.43,13.87-5.9,22.36a56.75,56.75,0,0,1-11.08-9.87c-2-2.2-3.83-4.57-5.74-6.86C108.39,106,109.66,106.27,110.33,105.9Z"/><path class="cls-1" d="M174.18,136.85c.84-.92,2-.65,3-.71,3.35-.21,6.67-1,10.06-.75A53.07,53.07,0,0,1,174.18,136.85Z"/><path class="cls-1" d="M110.33,105.9l-1.65,1.51C108.12,105.69,109.22,105.79,110.33,105.9Z"/><path class="cls-1" d="M284.69,132.81c4.75-9.19,11.07-17,20-22.78-3.57,9.9-.64,18.46,5.37,26.81-6.46.25-12.38-.86-18.33-1.54-2-.7-4.22-.6-6.28-1.19C284.68,133.89,284.19,133.69,284.69,132.81Z"/><path class="cls-1" d="M355.05,123.82c1.44-8.17-1-15.07-5.59-21.6a7,7,0,0,1,3.85,0,121.33,121.33,0,0,1,16.75,3.74c1,.29,2.36.39,1.16,2a70.88,70.88,0,0,1-15,15.45A5.67,5.67,0,0,1,355.05,123.82Z"/><path class="cls-1" d="M284.69,132.81c.7,1.62,2.31,1.22,3.57,1.52s2.48.07,3.48,1a28.83,28.83,0,0,1-6.47-.9C284.45,134.25,283.57,133.82,284.69,132.81Z"/><path class="cls-1" d="M287.78,148.28a5.17,5.17,0,0,1-1.71,0c-2-.68-3.82-.74-4.86,1.58.06-2.21,1.11-3.07,3.31-2.49C285.61,147.66,286.82,147.54,287.78,148.28Z"/><path class="cls-1" d="M244.46,234.84a32.29,32.29,0,0,0-4.76,6.33c-.71,1.33-1.31,1.32-2,0a32.59,32.59,0,0,0-4.76-6.33A23.25,23.25,0,0,1,244.46,234.84Z"/><circle class="cls-1" cx="160.3" cy="125.46" r="4.65"/><circle class="cls-1" cx="319.6" cy="125.46" r="4.65"/><path class="cls-1" d="M121.34,61.88c-4.48-1.59-2.73-.9-4.71-1.83-1.75-.61-3.34-.51-3.34-1.42,0-12.17,0-20.77-.05-32.93,0-2.14.49-3,2.77-2.86,2.9.19,5.83.1,8.74,0,1.53,0,2,.59,2,2.07,0,12.75,0,25.5,0,38.24C126.76,63.74,123.41,62.45,121.34,61.88Z"/><path class="cls-2" d="M207.17,179.21c-1-9.25-2.07-18.45-5.47-27.23-1.85-4.79-1.9-5.06-6.86-4.57-5.2.52-10.36,1.44-15.56,2-6.76.69-13.54,1.62-20.34.48-2.24-.38-3.66.93-5.09,2.11-1.83,1.52-3.42,1.78-5.22,0-5.73-5.58-13.66-6.91-20.42-10.52a83.58,83.58,0,0,1-34.1-33.67A116.81,116.81,0,0,1,82.9,79.17c-.78-3.08-.79-3.19,2.33-3.78,4.15-.78,8.35-1.32,12.51-2.07,1.85-.33,2.58.52,2.86,2.14a80.36,80.36,0,0,0,3.11,10.74c1.58,5,4.42,6.76,9.46,5.52a157.72,157.72,0,0,1,25.54-4c2.55-.49,5.16.2,7.71-.39,3.48-3.47,6.66-2.68,10,.41,2.24,2.08,5.48,1.65,8.24,2.46a65.92,65.92,0,0,1,30.55,18.83,77.14,77.14,0,0,1,10.12,13.84c.36.62.82,1.19,1.25,1.8,1.09-.79.68-1.79.68-2.63q.06-11.37,0-22.74c0-9.69-4.5-14.94-14-17.06-7-1.57-14.15-1.84-21.28-2-7.82-.19-15.66,0-23.48-.07-11-.16-21.91-.73-32.53-3.87C97.62,70.92,86.12,59.16,82,40.32A113.35,113.35,0,0,1,80.17,25c-.14-1.89.4-2.73,2.47-2.64,3.58.14,7.16.11,10.74,0,1.74-.06,2.19.57,2.33,2.28.48,5.7.85,11.41,2.79,16.9,3,8.58,8.64,14.73,17.06,18.07,9.62,3.83,19.73,5,30,4.66a2.67,2.67,0,0,1,2-.83,82.62,82.62,0,0,1,8.62,0,2.6,2.6,0,0,1,2,.83c2.39.06,4.78.13,7.17.17,5,.1,10,.17,15.06.25,3-1.26,5.82-1.44,8.5.69,7.22,1.23,14.25,3.09,20.75,6.59a1.49,1.49,0,0,1,1.43.22c6.8,5,11.34,11.28,11.58,20.06q0,41.1.09,82.18c0,1.58,0,3.16-.07,4.74-.67.76-1.55.37-2.32.38q-5.56.06-11.13,0C208.57,179.57,207.77,179.91,207.17,179.21Z"/><path class="cls-2" d="M308.45,150.44c-2.82-1.29-5.87-.35-8.79-.92a62.57,62.57,0,0,0-11-1.19,1.34,1.34,0,0,1-1,.41c-.8-.15-1.6-.33-2.39-.5-2.27-.51-2.76-.16-3.37,2.22a179.71,179.71,0,0,0-5.22,24.71c-.16,1,0,2.2-1.13,2.86l-.5,1.24a70.83,70.83,0,0,1-15.81-.08c1.57-12.35,3.63-24.63,7.58-36.47,4.12-12.37,9.53-24.17,18.47-33.87a64.38,64.38,0,0,1,32-18.83c3.83-1,7.5-2,10.52-4.65a2.38,2.38,0,0,1,3.37,0c.93.69,1.92,1.31,2.89,2,3,.68,6.12-.13,9.16.42a199.7,199.7,0,0,1,25,4.07c4.08,1,7-.8,8.38-4.73a86.31,86.31,0,0,0,3.63-12.37c.26-1.32.72-1.64,1.95-1.44q7.37,1.22,14.73,2.31c1.27.19,1.32.79,1.09,1.91a109.63,109.63,0,0,1-12.1,31.4c-.4.72-.69,1.49-1,2.24a2.12,2.12,0,0,1-.41,2.09,87.11,87.11,0,0,1-10.49,13.12,2.52,2.52,0,0,1-1.92,1c-5,4.16-9.76,8.52-15.42,11.76-1.43.82-2.82,1.73-4.22,2.59a1.61,1.61,0,0,1-.83,1.19,50,50,0,0,1-10.29,4.33,1.28,1.28,0,0,1-1.37-.36c-1.34-.17-2.09.83-3,1.5s-2.11,1.59-3.18,2.36c-4.33,3.11-4.43,3.23-8.59,0-2.15-1.64-4.1-.37-6.15-.32A13.54,13.54,0,0,1,308.45,150.44Z"/><path class="cls-3" d="M184.25,225.85c-3.53-1.66-7.09-3.24-10.57-5a45.22,45.22,0,0,1-11.38-7.77c10.11-1.09,16.72-7.9,24.29-13,5.62-3.78,11.38-7.36,18.3-8,13.57-1.32,25.34,1.78,32.89,14.36.52.86,1,1.52,1.69.22,4.4-8.16,11.56-12.49,20.35-14.26a35.15,35.15,0,0,1,27.41,5.41c5.25,3.52,10.35,7.27,15.6,10.79a23.69,23.69,0,0,0,12,4.35c-1.28,2.14-3.32,3.15-5.11,4.38a74.42,74.42,0,0,1-14.41,7.36,8.8,8.8,0,0,0-2.18,1.17,7.79,7.79,0,0,1-3.48,1.82,148.58,148.58,0,0,1-39.32,7c-2.08.07-4.09.7-6.18.61-3.64-.17-7.28-.11-10.91,0-4.75-.93-9.6-.46-14.38-1.07a164.3,164.3,0,0,1-32.3-6.95A6.28,6.28,0,0,1,184.25,225.85Z"/><path class="cls-4" d="M184.25,225.85c5.12,1.4,10.19,3,15.37,4.17,9.62,2.17,19.33,3.92,29.25,3.84a6.92,6.92,0,0,1,4,1c2.41.4,3,2.65,4.23,4.24,1.64,2.16,1.45,2.16,3.08,0,1.21-1.59,1.82-3.83,4.23-4.24a10.91,10.91,0,0,1,4.82-.93,150.75,150.75,0,0,0,41.93-7.63c.62-.2,1.28-.28,1.92-.42-2.51,6.23-6.41,11.59-10.79,16.6-8.95,10.21-20,17-33.47,19.17-18.14,2.88-34.48-1.35-48.4-13.69A69.47,69.47,0,0,1,185,227.68C184.65,227.1,184.16,226.58,184.25,225.85Z"/><path class="cls-4" d="M372,127.34a80.47,80.47,0,0,0,12.82-16.18c1,.51.69,1.43.69,2.22,0,21.16,0,42.32.05,63.48,0,2.1-.66,2.77-2.72,2.66a68.65,68.65,0,0,0-8.24,0c-2.14.14-2.64-.67-2.63-2.69.07-16.17,0-32.33,0-48.49C372,128,372,127.67,372,127.34Z"/><path class="cls-4" d="M222.69,92.27c-1.58-8.53-5.72-15.42-13-20.28,0-15.49.08-31,0-46.46,0-2.47.57-3.48,3.18-3.25a54,54,0,0,0,7.74,0c2.08-.13,2.68.6,2.67,2.68-.08,14.07,0,28.14,0,42.21,0,7.41,0,14.82,0,22.23C223.19,90.37,223.45,91.43,222.69,92.27Z"/><path class="cls-4" d="M188.93,65.4c-2.8-.61-5.66-.47-8.49-.69-3.05,0-3.21-1.9-3.18-4.41q.18-17.49,0-35c0-2.46.76-3.2,3.13-3a80.88,80.88,0,0,0,8.24,0c1.54,0,2.24.35,2.23,2.08q-.09,19.48,0,39C190.87,64.86,190.4,65.51,188.93,65.4Z"/><path class="cls-4" d="M158.2,64.29H145.59a4.41,4.41,0,0,1-.44-2.67c0-12.16,0-24.32-.05-36.49,0-2.14.49-3,2.77-2.85,2.9.19,5.83.09,8.75,0,1.52,0,2,.59,2,2.07,0,12.75,0,25.49,0,38.24A6.82,6.82,0,0,1,158.2,64.29Z"/><path class="cls-4" d="M339.88,146.85a62.71,62.71,0,0,0,12.49-5.15c1.15.48.82,1.51.82,2.37,0,11,0,22,.05,33,0,1.83-.51,2.53-2.4,2.45-3.08-.13-6.17-.06-9.25,0-1.18,0-1.91-.27-1.9-1.65C339.8,167.51,339.46,157.18,339.88,146.85Z"/><path class="cls-4" d="M308.45,150.44H319c1.65.11,2.29.78,2.26,2.63q-.2,12,0,24c0,2-.67,2.56-2.58,2.48-3-.14-6-.09-9,0-1.46,0-2.08-.39-2.07-2,.06-8.41,0-16.82,0-25.22C307.59,151.54,307.66,150.84,308.45,150.44Z"/><path class="cls-4" d="M287.78,148.28l.85.05q.09,14.8.17,29.6c0,1-.4,1.55-1.46,1.55-3.41,0-6.81,0-10.21,0-1.08,0-1.47-.53-1.59-1.46a158.08,158.08,0,0,1,5.67-28.16c1.37-2.64,1.41-2.68,4.43-1.91C286.35,148.14,287.11,147.92,287.78,148.28Z"/><path class="cls-5" d="M259.23,179.19l15.81.08c-.25.54-.75.59-1.25.59h-13.1C260.11,179.86,259.52,179.85,259.23,179.19Z"/><path class="cls-6" d="M207.17,179.21l15.54,0A37.67,37.67,0,0,1,207.17,179.21Z"/><path class="cls-7" d="M343.18,87.77c-3.06-.12-6.15.62-9.16-.42C337.07,87.53,340.16,86.89,343.18,87.77Z"/><path class="cls-7" d="M146.42,87.37c-2.53,1-5.14.31-7.71.39C141.24,86.9,143.85,87.5,146.42,87.37Z"/><path class="cls-8" d="M174.18,136.85h-3.61c4.73-6.85,8-13.93,6.26-22.76,3,1.64,4.81,3.87,6.78,5.93a63,63,0,0,1,9.07,12.76c.76,1.35.69,1.87-1,2-1.48.13-2.91.68-4.43.59C182.94,136.18,178.51,136.07,174.18,136.85Z"/><path class="cls-8" d="M110.33,105.9c6.72-1.7,13.43-3.53,21.07-4.12-4.84,6.88-7.43,13.87-5.9,22.36a56.75,56.75,0,0,1-11.08-9.87c-2-2.2-3.83-4.57-5.74-6.86C108.39,106,109.66,106.27,110.33,105.9Z"/><path class="cls-9" d="M174.18,136.85c.84-.92,2-.65,3-.71,3.35-.21,6.67-1,10.06-.75A53.07,53.07,0,0,1,174.18,136.85Z"/><path class="cls-10" d="M110.33,105.9l-1.65,1.51C108.12,105.69,109.22,105.79,110.33,105.9Z"/><path class="cls-11" d="M284.69,132.81c4.75-9.19,11.07-17,20-22.78-3.57,9.9-.64,18.46,5.37,26.81-6.46.25-12.38-.86-18.33-1.54-2-.7-4.22-.6-6.28-1.19C284.68,133.89,284.19,133.69,284.69,132.81Z"/><path class="cls-8" d="M355.05,123.82c1.44-8.17-1-15.07-5.59-21.6a7,7,0,0,1,3.85,0,121.33,121.33,0,0,1,16.75,3.74c1,.29,2.36.39,1.16,2a70.88,70.88,0,0,1-15,15.45A5.67,5.67,0,0,1,355.05,123.82Z"/><path class="cls-12" d="M284.69,132.81c.7,1.62,2.31,1.22,3.57,1.52s2.48.07,3.48,1a28.83,28.83,0,0,1-6.47-.9C284.45,134.25,283.57,133.82,284.69,132.81Z"/><path class="cls-13" d="M287.78,148.28a5.17,5.17,0,0,1-1.71,0c-2-.68-3.82-.74-4.86,1.58.06-2.21,1.11-3.07,3.31-2.49C285.61,147.66,286.82,147.54,287.78,148.28Z"/><path class="cls-14" d="M244.46,234.84a32.29,32.29,0,0,0-4.76,6.33c-.71,1.33-1.31,1.32-2,0a32.59,32.59,0,0,0-4.76-6.33A23.25,23.25,0,0,1,244.46,234.84Z"/><circle class="cls-8" cx="160.3" cy="125.46" r="4.65"/><circle class="cls-8" cx="319.6" cy="125.46" r="4.65"/><path class="cls-4" d="M121.34,61.88c-4.48-1.59-2.73-.9-4.71-1.83-1.75-.61-3.34-.51-3.34-1.42,0-12.17,0-20.77-.05-32.93,0-2.14.49-3,2.77-2.86,2.9.19,5.83.1,8.74,0,1.53,0,2,.59,2,2.07,0,12.75,0,25.5,0,38.24C126.76,63.74,123.41,62.45,121.34,61.88Z"/></svg>